HIERARCHY
ROOT Hips
{
	OFFSET 0.000000 0.000000 0.000000
	CHANNELS 6 Xposition Yposition Zposition Xrotation Yrotation Zrotation
	JOINT LeftUpLeg_virtual
	{
		OFFSET 0.000000 0.000000 0.000000
		CHANNELS 3 Xrotation Yrotation Zrotation
		JOINT LeftUpLeg
		{
			OFFSET 11.394100 -6.187798 -0.413800
			CHANNELS 3 Xrotation Yrotation Zrotation
			JOINT LeftLeg
			{
				OFFSET 0.430247 -32.302673 3.732800
				CHANNELS 3 Xrotation Yrotation Zrotation
				JOINT LeftFoot
				{
					OFFSET -0.430247 -48.264931 -6.423300
					CHANNELS 3 Xrotation Yrotation Zrotation
					JOINT LeftToeBase
					{
						OFFSET 4.230900 -16.068199 23.438400
						CHANNELS 3 Xrotation Yrotation Zrotation
						JOINT LeftToe_End
						{
							OFFSET 4.510700 0.695400 19.974600
							CHANNELS 3 Xrotation Yrotation Zrotation
							End Site
							{
								OFFSET 0 0 0
							}
						}
					}
				}
			}
		}
	}
	JOINT RightUpLeg_virtual
	{
		OFFSET 0.000000 0.000000 0.000000
		CHANNELS 3 Xrotation Yrotation Zrotation
		JOINT RightUpLeg
		{
			OFFSET -11.333700 -6.187798 -0.413800
			CHANNELS 3 Xrotation Yrotation Zrotation
			JOINT RightLeg
			{
				OFFSET -0.430392 -32.302628 3.733000
				CHANNELS 3 Xrotation Yrotation Zrotation
				JOINT RightFoot
				{
					OFFSET 0.430392 -48.264973 -6.423500
					CHANNELS 3 Xrotation Yrotation Zrotation
					JOINT RightToeBase
					{
						OFFSET -4.230900 -16.068199 23.438400
						CHANNELS 3 Xrotation Yrotation Zrotation
						JOINT RightToe_End
						{
							OFFSET -4.510700 0.695400 19.974600
							CHANNELS 3 Xrotation Yrotation Zrotation
							End Site
							{
								OFFSET 0 0 0
							}
						}
					}
				}
			}
		}
	}
	JOINT Spine_virtual
	{
		OFFSET 0.000000 0.000000 0.000000
		CHANNELS 3 Xrotation Yrotation Zrotation
		JOINT Spine
		{
			OFFSET -0.002400 12.777504 0.315300
			CHANNELS 3 Xrotation Yrotation Zrotation
			JOINT Spine1
			{
				OFFSET -0.002067 5.816869 0.032633
				CHANNELS 3 Xrotation Yrotation Zrotation
				JOINT Spine1_split
				{
					OFFSET -0.002067 5.816869 0.032633
					CHANNELS 3 Xrotation Yrotation Zrotation
					JOINT Spine2
					{
						OFFSET -0.002067 5.816869 0.032633
						CHANNELS 3 Xrotation Yrotation Zrotation
						JOINT Neck_virtual
						{
							OFFSET 0.000000 0.000000 0.000000
							CHANNELS 3 Xrotation Yrotation Zrotation
							JOINT Neck
							{
								OFFSET -0.003700 21.199493 -0.826900
								CHANNELS 3 Xrotation Yrotation Zrotation
								JOINT Head
								{
									OFFSET 0.000000 20.442200 4.834800
									CHANNELS 3 Xrotation Yrotation Zrotation
									JOINT HeadTop_End
									{
										OFFSET 0.000000 34.668396 4.968400
										CHANNELS 3 Xrotation Yrotation Zrotation
										End Site
										{
											OFFSET 0 0 0
										}
									}
								}
							}
						}
						JOINT LeftShoulder_virtual
						{
							OFFSET 0.000000 0.000000 0.000000
							CHANNELS 3 Xrotation Yrotation Zrotation
							JOINT LeftShoulder
							{
								OFFSET 3.288150 8.794197 -1.372250
								CHANNELS 3 Xrotation Yrotation Zrotation
								JOINT LeftShoulder_split
								{
									OFFSET 3.288150 8.794197 -1.372250
									CHANNELS 3 Xrotation Yrotation Zrotation
									JOINT LeftArm
									{
										OFFSET 11.953299 -2.279007 -0.146200
										CHANNELS 3 Xrotation Yrotation Zrotation
										JOINT LeftForeArm
										{
											OFFSET 18.448900 0.000000 0.000000
											CHANNELS 3 Xrotation Yrotation Zrotation
											JOINT LeftHand
											{
												OFFSET 29.527798 0.000000 0.000000
												CHANNELS 3 Xrotation Yrotation Zrotation
												End Site
												{
													OFFSET 0 0 0
												}
											}
										}
									}
								}
							}
						}
						JOINT RightShoulder_virtual
						{
							OFFSET 0.000000 0.000000 0.000000
							CHANNELS 3 Xrotation Yrotation Zrotation
							JOINT RightShoulder
							{
								OFFSET -3.249400 8.794197 -1.372250
								CHANNELS 3 Xrotation Yrotation Zrotation
								JOINT RightShoulder_split
								{
									OFFSET -3.249400 8.794197 -1.372250
									CHANNELS 3 Xrotation Yrotation Zrotation
									JOINT RightArm
									{
										OFFSET -11.953299 -2.279007 -0.146200
										CHANNELS 3 Xrotation Yrotation Zrotation
										JOINT RightForeArm
										{
											OFFSET -18.448900 0.000000 0.000000
											CHANNELS 3 Xrotation Yrotation Zrotation
											JOINT RightHand
											{
												OFFSET -29.527802 0.000000 0.000000
												CHANNELS 3 Xrotation Yrotation Zrotation
												End Site
												{
													OFFSET 0 0 0
												}
											}
										}
									}
								}
							}
						}
					}
				}
			}
		}
	}
}
MOTION
Frames: 11
Frame Time: 0.03333333
2.369341 140.700851 331.142059 0.000000 0.000000 0.000000 15.829329 -39.389499 28.699512 -89.668451 -14.714294 14.119905 96.084410 7.999938 -0.944153 -13.398663 1.570687 0.397324 1.933358 -0.313493 -6.090292 0.000000 0.000000 0.000000 11.649636 -34.798233 24.485175 -100.190413 -14.323967 -6.756113 86.520786 5.781410 3.269076 30.248937 15.010268 3.920241 -8.692916 1.664399 -2.840396 0.000000 0.000000 0.000000 12.902058 -30.701625 25.119322 34.417634 1.133626 -27.643601 13.387620 -0.003902 -3.159697 1.839111 -0.891814 0.290168 0.000000 0.000000 0.000000 18.453062 -1.193365 -0.147669 -2.252489 12.871838 -13.421012 -37.789237 -5.505108 0.055553 0.000000 0.000000 0.000000 17.078975 -0.544683 -0.889242 3.284129 -17.321063 -3.691900 1.764947 -2.444963 -0.824766 -87.438811 2.845314 -5.175112 10.656209 -57.367128 6.551110 0.000000 0.000000 0.000000 17.302650 -1.421572 -0.718393 6.031289 27.729533 -0.402142 -1.801536 4.982603 6.271686 -65.065953 -8.896592 40.418105 -82.762181 24.086179 59.545972 0.000000 0.000000 0.000000 
2.165967 139.938965 341.660431 0.000000 0.000000 0.000000 16.128022 -34.545130 26.036538 -81.826752 -10.003952 18.060957 85.585979 9.984114 -1.825047 -18.446999 3.637401 3.250232 -0.196790 -0.593140 -5.194058 0.000000 0.000000 0.000000 14.104434 -33.483322 23.346596 -97.566903 -17.184700 -8.848391 62.251314 1.249750 6.641043 31.236654 12.540096 3.435853 -8.713779 1.988149 -3.115575 0.000000 0.000000 0.000000 14.925720 -28.598103 23.901602 34.644232 1.804348 -25.331964 12.814578 -0.350202 -3.190321 2.626590 -0.369828 0.344767 0.000000 0.000000 0.000000 17.987308 -1.463967 -0.394564 -2.875829 13.357462 -15.579086 -41.067902 -5.743579 0.637653 0.000000 0.000000 0.000000 16.503556 -0.857242 -1.071522 3.454737 -15.467045 -4.058599 1.975069 -3.326440 -1.061676 -85.849706 -0.454385 -3.082534 0.731839 -57.402815 -1.738051 0.000000 0.000000 0.000000 16.741765 -1.849443 -0.951924 5.614094 26.322601 1.870656 -1.032594 3.667317 6.689474 -60.262062 -8.455589 42.341091 -84.227502 26.010399 63.323299 0.000000 0.000000 0.000000 
1.637531 136.611618 351.116760 0.000000 0.000000 0.000000 15.065640 -28.898773 22.936404 -77.588961 -6.378277 20.806180 75.112123 10.516345 -1.435806 -20.138934 4.036394 3.603122 -2.087049 -0.718689 -3.725931 0.000000 0.000000 0.000000 15.770055 -31.108769 22.265592 -90.711333 -16.694808 -10.547769 41.197003 -2.698583 7.352793 32.039967 9.319127 3.714518 -7.241807 1.926279 -2.396489 0.000000 0.000000 0.000000 15.757062 -26.782809 22.365791 33.782956 2.773731 -22.834760 11.937562 -0.732719 -2.859248 2.562347 -0.120430 0.371186 0.000000 0.000000 0.000000 16.868959 -1.641340 -0.216717 -2.744099 13.316951 -17.431394 -43.152630 -4.658831 0.984489 0.000000 0.000000 0.000000 15.694200 -1.073034 -0.709560 3.512469 -12.397478 -4.045076 3.134030 -4.031865 -1.500216 -83.971814 -1.356262 -1.311991 -6.793089 -58.438812 -8.091428 0.000000 0.000000 0.000000 15.989900 -2.146370 -0.760645 5.391417 24.951448 4.241857 -1.276009 2.972848 6.762363 -52.259611 -6.837193 43.939003 -84.097626 28.026284 66.504193 0.000000 0.000000 0.000000 
1.381214 131.102554 360.505920 0.000000 0.000000 0.000000 14.060268 -24.526934 20.522451 -76.204783 -4.914047 22.051034 65.259760 9.811409 -0.125588 -19.042976 3.446739 1.789176 -2.270893 -0.735948 -2.788063 0.000000 0.000000 0.000000 16.075704 -27.984726 21.043637 -80.448249 -12.773738 -11.495215 28.243099 -3.161130 6.466238 32.296317 7.328381 6.846089 -6.179359 1.541253 -1.652839 0.000000 0.000000 0.000000 15.892214 -25.471474 20.902822 32.229692 3.672194 -20.392220 10.732370 -1.161228 -2.350998 1.538400 0.451578 0.443044 0.000000 0.000000 0.000000 15.252075 -1.785980 0.247351 -1.615843 12.821866 -18.652036 -43.456771 -2.409924 1.149305 0.000000 0.000000 0.000000 14.668156 -1.251655 -0.011219 3.452193 -9.025713 -3.737739 4.945698 -3.998408 -1.864440 -82.456885 0.446418 0.415339 -13.358194 -60.736603 -13.891011 0.000000 0.000000 0.000000 15.078860 -2.341766 -0.245503 5.255223 23.708509 6.454983 -2.112240 2.678658 6.746428 -41.741079 -5.313205 44.650985 -83.457153 30.419231 69.671987 0.000000 0.000000 0.000000 
1.337449 124.275528 370.246307 0.000000 0.000000 0.000000 13.832065 -22.808269 18.837491 -76.037067 -5.542023 21.834277 56.574628 9.372329 1.395432 -16.436709 2.370938 -0.112926 -1.293705 -0.741745 -2.451237 0.000000 0.000000 0.000000 15.928069 -25.719089 19.808221 -67.685645 -6.515439 -10.904841 22.260085 -1.240819 5.204115 29.398446 5.857945 11.618812 -6.038558 0.831536 -1.635292 0.000000 0.000000 0.000000 15.536092 -25.031125 19.270364 30.306058 4.508914 -17.854347 9.322190 -1.568119 -1.853177 0.612050 0.199693 0.467939 0.000000 0.000000 0.000000 13.229737 -2.019323 0.691842 0.799967 12.158472 -19.038471 -41.747308 0.826778 1.239073 0.000000 0.000000 0.000000 13.433965 -1.470970 0.705568 3.170474 -6.231375 -3.073045 6.171865 -3.103034 -2.860902 -81.680313 4.455248 1.856477 -20.405103 -63.804957 -20.521133 0.000000 0.000000 0.000000 13.900118 -2.473048 0.340198 5.017821 22.456906 8.661823 -3.274271 2.498977 6.974900 -29.735956 -5.708649 44.631202 -83.776710 33.591369 73.937201 0.000000 0.000000 0.000000 
1.338971 117.028908 380.657593 0.000000 0.000000 0.000000 13.917735 -23.651316 17.051359 -74.845814 -6.592910 21.400933 48.568792 10.744405 2.548589 -14.536145 1.763736 -0.081216 0.553104 -0.830852 -2.672266 0.000000 0.000000 0.000000 14.879193 -25.097815 18.081066 -53.774346 0.449094 -8.628249 21.830878 1.562460 3.603309 19.816597 3.415860 14.984583 -5.383212 -0.028110 -2.113085 0.000000 0.000000 0.000000 14.898625 -25.597876 17.177180 28.557986 5.326429 -15.105655 7.648138 -1.836528 -1.574755 0.454416 -0.084881 0.310075 0.000000 0.000000 0.000000 11.002773 -2.252270 0.792279 4.339231 11.275667 -18.574187 -38.321999 4.242243 1.011017 0.000000 0.000000 0.000000 11.905027 -1.709221 1.115805 2.708415 -4.770035 -2.557290 6.685020 -2.078304 -3.814837 -80.718930 9.331193 2.833585 -29.516850 -67.731619 -29.516034 0.000000 0.000000 0.000000 12.339740 -2.541015 0.785032 4.671031 21.056076 10.705043 -4.089903 2.180294 7.176369 -17.443854 -9.203653 44.653618 -86.321187 37.464680 80.168567 0.000000 0.000000 0.000000 
1.683963 110.116058 391.863129 0.000000 0.000000 0.000000 13.906811 -26.664994 14.888021 -71.751397 -6.499880 21.651375 41.395779 13.851710 3.243377 -13.344386 2.018726 1.633992 1.940374 -1.099057 -2.865289 0.000000 0.000000 0.000000 13.030527 -26.747200 15.448283 -40.110730 6.523377 -5.785878 25.649239 2.987488 1.777999 4.606645 -0.648427 13.196078 -4.425910 -0.820455 -2.053192 0.000000 0.000000 0.000000 13.582986 -27.255142 14.713773 27.251785 6.159340 -12.212996 5.796875 -1.802773 -1.499981 1.138102 -0.282409 0.379869 0.000000 0.000000 0.000000 8.678751 -2.410325 0.568716 8.240500 10.267217 -17.265234 -33.797579 7.255811 0.418291 0.000000 0.000000 0.000000 9.993537 -1.901225 1.173652 2.105456 -4.950842 -2.481911 5.937589 -1.370001 -4.087250 -78.311664 14.082570 2.813229 -41.797254 -72.061084 -42.147076 0.000000 0.000000 0.000000 10.204451 -2.552350 0.989166 4.215596 19.336178 12.422362 -4.199231 2.082755 6.802358 -6.171810 -15.480760 45.518279 -90.767852 41.163873 87.567103 0.000000 0.000000 0.000000 
1.637242 104.565445 403.123840 0.000000 0.000000 0.000000 12.827684 -30.160196 12.004962 -67.503907 -4.690954 22.795369 36.380169 17.352780 3.253936 -10.970021 2.413801 3.047357 0.749520 -1.389630 -2.114908 0.000000 0.000000 0.000000 10.572726 -30.248217 12.366782 -28.613030 10.799198 -3.365965 31.494040 2.182394 0.095777 -9.997333 -3.634983 6.414865 -5.309408 -1.545055 -0.829013 0.000000 0.000000 0.000000 11.582493 -29.065348 11.725777 26.599395 6.980117 -9.425522 3.756359 -1.430922 -1.374313 2.050499 -0.816102 0.705631 0.000000 0.000000 0.000000 6.276622 -2.347670 0.243927 11.714806 9.226646 -15.621951 -29.129811 9.406230 -0.403479 0.000000 0.000000 0.000000 7.640635 -1.942610 1.086070 1.406700 -6.558633 -2.933048 4.608374 -0.980776 -3.703008 -73.937918 17.718359 1.195264 -57.764460 -76.193397 -59.036378 0.000000 0.000000 0.000000 7.385709 -2.430274 1.123908 3.774316 17.268682 13.885600 -3.688250 2.648703 5.574932 3.450195 -23.024629 47.801492 -94.307133 44.351065 93.183253 0.000000 0.000000 0.000000 
1.287825 100.492279 414.428070 0.000000 0.000000 0.000000 10.220450 -32.501039 8.561961 -63.581691 -1.143439 24.222170 34.802515 20.382671 1.935895 -6.035093 2.779764 2.895823 -1.990528 -1.652122 -0.742701 0.000000 0.000000 0.000000 7.439689 -33.816396 8.924011 -19.879119 13.319729 -2.404681 37.270256 0.786268 -1.054811 -15.973309 -3.540834 1.139309 -11.014447 -2.380909 1.693413 0.000000 0.000000 0.000000 8.704416 -30.238764 8.436384 26.833489 7.491661 -7.486328 1.526177 -0.865673 -0.980074 2.548816 -1.017231 1.409763 0.000000 0.000000 0.000000 3.971009 -1.993330 0.218160 13.418264 8.163371 -14.215827 -25.223704 10.167716 -1.229776 0.000000 0.000000 0.000000 4.935269 -1.760097 1.236327 0.705324 -9.080489 -4.014345 3.952214 -0.623864 -2.690526 -67.963128 19.528112 -2.322606 -79.080053 -79.872533 -81.776120 0.000000 0.000000 0.000000 4.056479 -2.215601 1.483263 3.332450 14.886689 15.035166 -3.047747 3.800643 3.783418 11.763646 -29.696081 51.159302 -94.946145 47.438194 95.083214 0.000000 0.000000 0.000000 
0.974502 97.814041 425.221619 0.000000 0.000000 0.000000 6.962082 -33.136857 5.487285 -61.259140 2.877141 25.101627 37.211800 22.459778 -1.014081 1.629973 2.925412 0.818193 -4.673326 -1.758476 0.742058 0.000000 0.000000 0.000000 4.910213 -36.084733 5.856551 -12.767755 14.218953 -2.938963 40.364967 -0.393006 -1.788885 -11.370774 -2.081240 0.259534 -22.223311 -3.877186 4.906288 0.000000 0.000000 0.000000 5.555471 -30.266563 5.465832 27.822385 7.457294 -6.834565 -0.750210 -0.266488 -0.047415 2.140100 -1.242956 2.022647 0.000000 0.000000 0.000000 1.891795 -1.497931 0.853924 12.815604 7.313362 -13.497607 -22.379289 9.891701 -1.770573 0.000000 0.000000 0.000000 2.040483 -1.444586 1.923657 0.027859 -11.852268 -5.242797 3.577829 0.451991 -1.695147 -61.944208 19.027252 -7.473986 -107.525127 -82.800334 -111.908469 0.000000 0.000000 0.000000 0.524391 -2.034892 2.262403 2.996684 12.173836 16.128331 -2.563905 4.742073 2.113246 18.723061 -33.888769 55.039362 -92.894029 51.011606 93.686898 0.000000 0.000000 0.000000 
0.494530 96.186630 435.751648 0.000000 0.000000 0.000000 3.860106 -31.827210 3.313312 -60.005261 6.629848 25.086378 42.436546 23.622462 -5.058880 9.181946 2.940853 -2.291787 -6.675471 -1.456608 1.927410 0.000000 0.000000 0.000000 3.595502 -35.749794 3.868111 -7.182048 13.262700 -4.010066 41.217050 -1.896247 -2.519455 -1.117951 -0.520645 1.848378 -33.558745 -6.036385 7.980302 0.000000 0.000000 0.000000 2.884942 -28.920845 3.129972 29.465467 6.672721 -7.605686 -2.966636 0.020353 1.459401 1.265455 -1.192514 2.403647 0.000000 0.000000 0.000000 0.126140 -1.103202 2.243965 9.830503 6.889704 -13.784575 -20.511545 8.666714 -1.921295 0.000000 0.000000 0.000000 -0.813637 -1.216939 3.240031 -0.459382 -14.241308 -6.247635 3.424020 1.758193 -1.409016 -58.009008 15.963424 -13.411967 -148.280798 -84.672257 -154.258347 0.000000 0.000000 0.000000 -2.675486 -2.037814 3.569915 2.893771 9.234757 17.293745 -2.170875 5.414122 0.737532 24.792916 -34.740343 58.777377 -88.961985 55.429266 90.294875 0.000000 0.000000 0.000000 
